<svg width="469" height="307" viewBox="0 0 469 307" fill="none" xmlns="http://www.w3.org/2000/svg">
<g filter="url(#filter0_d_2558_5272)">
<rect x="12" y="10" width="445" height="283" rx="10" fill="white"/>
</g>
<path d="M54.8281 87V80.3291L49.3281 71.499H51.5302L55.7304 78.4277H55.8486L60.0595 71.499H62.2617L56.7617 80.3291V87H54.8281ZM67.1975 87.2148C66.1376 87.2148 65.2138 86.9749 64.426 86.4951C63.6382 86.0153 63.0259 85.335 62.5891 84.4541C62.1594 83.5732 61.9446 82.5277 61.9446 81.3174V81.2959C61.9446 80.0856 62.1594 79.0436 62.5891 78.1699C63.0259 77.2891 63.6382 76.6123 64.426 76.1396C65.2138 75.667 66.134 75.4307 67.1868 75.4307C68.2538 75.4307 69.1776 75.667 69.9582 76.1396C70.746 76.6123 71.3547 77.2891 71.7844 78.1699C72.2213 79.0436 72.4397 80.0856 72.4397 81.2959V81.3174C72.4397 82.5277 72.2213 83.5732 71.7844 84.4541C71.3547 85.335 70.7496 86.0153 69.969 86.4951C69.1884 86.9749 68.2646 87.2148 67.1975 87.2148ZM67.1975 85.5605C67.8922 85.5605 68.4866 85.3923 68.9807 85.0557C69.4748 84.7191 69.8544 84.2357 70.1194 83.6055C70.3915 82.9753 70.5276 82.2126 70.5276 81.3174V81.2959C70.5276 80.4079 70.3915 79.6488 70.1194 79.0186C69.8544 78.3883 69.4713 77.9085 68.97 77.5791C68.4758 77.2497 67.8814 77.085 67.1868 77.085C66.5064 77.085 65.9156 77.2497 65.4143 77.5791C64.913 77.9085 64.5263 78.3883 64.2541 79.0186C63.9892 79.6488 63.8567 80.4079 63.8567 81.2959V81.3174C63.8567 82.2126 63.9892 82.9753 64.2541 83.6055C64.5263 84.2357 64.913 84.7191 65.4143 85.0557C65.9156 85.3923 66.51 85.5605 67.1975 85.5605ZM78.8794 87.2148C78.0344 87.2148 77.3182 87.0465 76.731 86.71C76.1509 86.3734 75.7105 85.89 75.4097 85.2598C75.1089 84.6296 74.9585 83.8776 74.9585 83.0039V75.6348H76.8277V82.6172C76.8277 83.584 77.0353 84.318 77.4507 84.8193C77.8661 85.3135 78.5178 85.5605 79.4058 85.5605C79.8784 85.5605 80.301 85.4854 80.6734 85.335C81.0458 85.1846 81.3609 84.9697 81.6187 84.6904C81.8836 84.4111 82.0842 84.0745 82.2202 83.6807C82.3563 83.2796 82.4243 82.832 82.4243 82.3379V75.6348H84.2935V87H82.4243V85.3457H82.3169C82.1236 85.7181 81.8657 86.0439 81.5435 86.3232C81.2212 86.6025 80.8381 86.821 80.3941 86.9785C79.95 87.1361 79.4452 87.2148 78.8794 87.2148ZM87.2742 77.1602L88.2088 71.499H90.2498L88.6277 77.1602H87.2742ZM92.7901 87V75.6348H94.6593V77.4395H94.7667C94.9672 76.8164 95.3145 76.3258 95.8087 75.9678C96.3028 75.6097 96.9008 75.4307 97.6026 75.4307C97.7745 75.4307 97.9356 75.4414 98.086 75.4629C98.2364 75.4772 98.3546 75.4915 98.4405 75.5059V77.3213C98.3116 77.2855 98.154 77.2604 97.9678 77.2461C97.7888 77.2246 97.5883 77.2139 97.3663 77.2139C96.8292 77.2139 96.3565 77.3249 95.9483 77.5469C95.5473 77.7689 95.2322 78.0876 95.003 78.5029C94.7738 78.9183 94.6593 79.4089 94.6593 79.9746V87H92.7901ZM104.784 87.2148C103.695 87.2148 102.76 86.9749 101.98 86.4951C101.206 86.0153 100.608 85.3385 100.186 84.4648C99.7705 83.584 99.5628 82.5492 99.5628 81.3604V81.3496C99.5628 80.1751 99.7705 79.1439 100.186 78.2559C100.608 77.3678 101.203 76.6768 101.969 76.1826C102.735 75.6813 103.634 75.4307 104.665 75.4307C105.697 75.4307 106.585 75.6706 107.329 76.1504C108.074 76.623 108.644 77.2891 109.037 78.1484C109.438 79.0007 109.639 79.9961 109.639 81.1348V81.833H100.508V80.3613H108.704L107.77 81.7148V80.9951C107.77 80.1071 107.637 79.3766 107.372 78.8037C107.107 78.2236 106.739 77.7939 106.266 77.5146C105.8 77.2282 105.263 77.085 104.655 77.085C104.046 77.085 103.502 77.2354 103.022 77.5361C102.542 77.8298 102.162 78.2666 101.883 78.8467C101.604 79.4268 101.464 80.1429 101.464 80.9951V81.7148C101.464 82.5241 101.6 83.2152 101.872 83.7881C102.145 84.3538 102.531 84.7907 103.033 85.0986C103.541 85.3994 104.139 85.5498 104.827 85.5498C105.321 85.5498 105.758 85.4782 106.137 85.335C106.517 85.1917 106.832 85.002 107.082 84.7656C107.333 84.5293 107.512 84.2715 107.619 83.9922L107.652 83.8955H109.499L109.478 83.9922C109.385 84.4219 109.209 84.8301 108.952 85.2168C108.694 85.6035 108.361 85.9473 107.952 86.248C107.551 86.5488 107.082 86.7852 106.545 86.957C106.015 87.1289 105.428 87.2148 104.784 87.2148ZM117.749 87V75.6348H119.618V77.2998H119.726C120.019 76.734 120.449 76.2829 121.015 75.9463C121.58 75.6025 122.286 75.4307 123.131 75.4307C124.391 75.4307 125.365 75.8031 126.053 76.5479C126.74 77.2855 127.084 78.3132 127.084 79.6309V87H125.215V80.0176C125.215 79.0436 124.996 78.3132 124.559 77.8262C124.13 77.332 123.471 77.085 122.583 77.085C121.981 77.085 121.459 77.2174 121.015 77.4824C120.571 77.7402 120.227 78.109 119.983 78.5889C119.74 79.0687 119.618 79.638 119.618 80.2969V87H117.749ZM134.845 87.2148C133.785 87.2148 132.861 86.9749 132.073 86.4951C131.286 86.0153 130.673 85.335 130.237 84.4541C129.807 83.5732 129.592 82.5277 129.592 81.3174V81.2959C129.592 80.0856 129.807 79.0436 130.237 78.1699C130.673 77.2891 131.286 76.6123 132.073 76.1396C132.861 75.667 133.781 75.4307 134.834 75.4307C135.901 75.4307 136.825 75.667 137.606 76.1396C138.393 76.6123 139.002 77.2891 139.432 78.1699C139.869 79.0436 140.087 80.0856 140.087 81.2959V81.3174C140.087 82.5277 139.869 83.5732 139.432 84.4541C139.002 85.335 138.397 86.0153 137.616 86.4951C136.836 86.9749 135.912 87.2148 134.845 87.2148ZM134.845 85.5605C135.54 85.5605 136.134 85.3923 136.628 85.0557C137.122 84.7191 137.502 84.2357 137.767 83.6055C138.039 82.9753 138.175 82.2126 138.175 81.3174V81.2959C138.175 80.4079 138.039 79.6488 137.767 79.0186C137.502 78.3883 137.119 77.9085 136.617 77.5791C136.123 77.2497 135.529 77.085 134.834 77.085C134.154 77.085 133.563 77.2497 133.062 77.5791C132.56 77.9085 132.174 78.3883 131.902 79.0186C131.637 79.6488 131.504 80.4079 131.504 81.2959V81.3174C131.504 82.2126 131.637 82.9753 131.902 83.6055C132.174 84.2357 132.56 84.7191 133.062 85.0557C133.563 85.3923 134.157 85.5605 134.845 85.5605ZM146.538 87.1504C145.442 87.1504 144.633 86.9105 144.11 86.4307C143.587 85.9437 143.326 85.1595 143.326 84.0781V77.1816H141.607V75.6348H143.326V72.627H145.259V75.6348H147.58V77.1816H145.259V83.8525C145.259 84.4827 145.388 84.9268 145.646 85.1846C145.904 85.4352 146.308 85.5605 146.86 85.5605C146.996 85.5605 147.118 85.557 147.225 85.5498C147.34 85.5355 147.458 85.5247 147.58 85.5176V87.0645C147.436 87.0859 147.272 87.1038 147.085 87.1182C146.906 87.1396 146.724 87.1504 146.538 87.1504ZM159.567 87.1504C158.472 87.1504 157.662 86.9105 157.14 86.4307C156.617 85.9437 156.355 85.1595 156.355 84.0781V77.1816H154.637V75.6348H156.355V72.627H158.289V75.6348H160.609V77.1816H158.289V83.8525C158.289 84.4827 158.418 84.9268 158.676 85.1846C158.934 85.4352 159.338 85.5605 159.89 85.5605C160.026 85.5605 160.147 85.557 160.255 85.5498C160.369 85.5355 160.488 85.5247 160.609 85.5176V87.0645C160.466 87.0859 160.301 87.1038 160.115 87.1182C159.936 87.1396 159.754 87.1504 159.567 87.1504ZM163.322 87V71.1768H165.191V77.3965H165.287C165.588 76.7734 166.025 76.29 166.598 75.9463C167.171 75.6025 167.88 75.4307 168.725 75.4307C169.548 75.4307 170.261 75.6097 170.863 75.9678C171.464 76.3258 171.926 76.8343 172.248 77.4932C172.578 78.152 172.742 78.9362 172.742 79.8457V87H170.873V80.2324C170.873 79.2012 170.641 78.4206 170.175 77.8906C169.71 77.3535 169.029 77.085 168.134 77.085C167.54 77.085 167.02 77.221 166.576 77.4932C166.14 77.7581 165.799 78.1341 165.556 78.6211C165.312 79.1009 165.191 79.6667 165.191 80.3184V87H163.322ZM180.471 87.2148C179.383 87.2148 178.448 86.9749 177.668 86.4951C176.894 86.0153 176.296 85.3385 175.874 84.4648C175.458 83.584 175.251 82.5492 175.251 81.3604V81.3496C175.251 80.1751 175.458 79.1439 175.874 78.2559C176.296 77.3678 176.891 76.6768 177.657 76.1826C178.423 75.6813 179.322 75.4307 180.353 75.4307C181.384 75.4307 182.272 75.6706 183.017 76.1504C183.762 76.623 184.331 77.2891 184.725 78.1484C185.126 79.0007 185.327 79.9961 185.327 81.1348V81.833H176.196V80.3613H184.392L183.458 81.7148V80.9951C183.458 80.1071 183.325 79.3766 183.06 78.8037C182.795 78.2236 182.426 77.7939 181.954 77.5146C181.488 77.2282 180.951 77.085 180.342 77.085C179.734 77.085 179.189 77.2354 178.71 77.5361C178.23 77.8298 177.85 78.2666 177.571 78.8467C177.292 79.4268 177.152 80.1429 177.152 80.9951V81.7148C177.152 82.5241 177.288 83.2152 177.56 83.7881C177.832 84.3538 178.219 84.7907 178.72 85.0986C179.229 85.3994 179.827 85.5498 180.514 85.5498C181.008 85.5498 181.445 85.4782 181.825 85.335C182.204 85.1917 182.519 85.002 182.77 84.7656C183.021 84.5293 183.2 84.2715 183.307 83.9922L183.339 83.8955H185.187L185.166 83.9922C185.073 84.4219 184.897 84.8301 184.639 85.2168C184.381 85.6035 184.048 85.9473 183.64 86.248C183.239 86.5488 182.77 86.7852 182.233 86.957C181.703 87.1289 181.116 87.2148 180.471 87.2148ZM193.437 90.8135V75.6348H195.306V77.5039H195.413C195.65 77.0742 195.943 76.7054 196.294 76.3975C196.645 76.0895 197.046 75.8532 197.497 75.6885C197.956 75.5166 198.453 75.4307 198.99 75.4307C199.957 75.4307 200.799 75.6742 201.515 76.1611C202.231 76.641 202.786 77.3249 203.18 78.2129C203.581 79.0938 203.781 80.1286 203.781 81.3174V81.3281C203.781 82.5169 203.581 83.5518 203.18 84.4326C202.786 85.3135 202.231 85.9974 201.515 86.4844C200.799 86.9714 199.961 87.2148 199.001 87.2148C198.478 87.2148 197.984 87.1325 197.519 86.9678C197.053 86.7959 196.641 86.556 196.283 86.248C195.925 85.9401 195.635 85.5749 195.413 85.1523H195.306V90.8135H193.437ZM198.593 85.5605C199.273 85.5605 199.857 85.3887 200.344 85.0449C200.838 84.7012 201.214 84.2142 201.472 83.584C201.737 82.9466 201.869 82.1947 201.869 81.3281V81.3174C201.869 80.4365 201.737 79.681 201.472 79.0508C201.214 78.4134 200.838 77.9264 200.344 77.5898C199.857 77.2533 199.273 77.085 198.593 77.085C197.927 77.085 197.343 77.2568 196.842 77.6006C196.348 77.9443 195.965 78.4349 195.693 79.0723C195.42 79.7025 195.284 80.4508 195.284 81.3174V81.3281C195.284 82.1875 195.42 82.9359 195.693 83.5732C195.972 84.2035 196.359 84.694 196.853 85.0449C197.347 85.3887 197.927 85.5605 198.593 85.5605ZM211.038 87.2148C209.949 87.2148 209.014 86.9749 208.234 86.4951C207.46 86.0153 206.862 85.3385 206.44 84.4648C206.025 83.584 205.817 82.5492 205.817 81.3604V81.3496C205.817 80.1751 206.025 79.1439 206.44 78.2559C206.862 77.3678 207.457 76.6768 208.223 76.1826C208.989 75.6813 209.888 75.4307 210.919 75.4307C211.951 75.4307 212.839 75.6706 213.583 76.1504C214.328 76.623 214.898 77.2891 215.291 78.1484C215.692 79.0007 215.893 79.9961 215.893 81.1348V81.833H206.762V80.3613H214.958L214.024 81.7148V80.9951C214.024 80.1071 213.891 79.3766 213.626 78.8037C213.361 78.2236 212.993 77.7939 212.52 77.5146C212.054 77.2282 211.517 77.085 210.909 77.085C210.3 77.085 209.756 77.2354 209.276 77.5361C208.796 77.8298 208.416 78.2666 208.137 78.8467C207.858 79.4268 207.718 80.1429 207.718 80.9951V81.7148C207.718 82.5241 207.854 83.2152 208.126 83.7881C208.399 84.3538 208.785 84.7907 209.287 85.0986C209.795 85.3994 210.393 85.5498 211.081 85.5498C211.575 85.5498 212.011 85.4782 212.391 85.335C212.771 85.1917 213.086 85.002 213.336 84.7656C213.587 84.5293 213.766 84.2715 213.873 83.9922L213.906 83.8955H215.753L215.732 83.9922C215.639 84.4219 215.463 84.8301 215.206 85.2168C214.948 85.6035 214.615 85.9473 214.206 86.248C213.805 86.5488 213.336 86.7852 212.799 86.957C212.269 87.1289 211.682 87.2148 211.038 87.2148ZM218.476 87V75.6348H220.345V77.4395H220.453C220.653 76.8164 221.001 76.3258 221.495 75.9678C221.989 75.6097 222.587 75.4307 223.289 75.4307C223.461 75.4307 223.622 75.4414 223.772 75.4629C223.923 75.4772 224.041 75.4915 224.127 75.5059V77.3213C223.998 77.2855 223.84 77.2604 223.654 77.2461C223.475 77.2246 223.274 77.2139 223.052 77.2139C222.515 77.2139 222.043 77.3249 221.634 77.5469C221.233 77.7689 220.918 78.0876 220.689 78.5029C220.46 78.9183 220.345 79.4089 220.345 79.9746V87H218.476ZM230.104 87.2148C229.238 87.2148 228.479 87.0788 227.827 86.8066C227.183 86.5345 226.667 86.1549 226.28 85.668C225.901 85.181 225.672 84.6117 225.593 83.96V83.9062H227.483L227.494 83.96C227.63 84.4827 227.917 84.8981 228.354 85.2061C228.79 85.5068 229.385 85.6572 230.137 85.6572C230.652 85.6572 231.096 85.5856 231.469 85.4424C231.848 85.2992 232.142 85.0986 232.35 84.8408C232.564 84.583 232.672 84.2822 232.672 83.9385V83.917C232.672 83.5231 232.532 83.1973 232.253 82.9395C231.974 82.6816 231.497 82.4704 230.824 82.3057L229.041 81.876C228.332 81.7041 227.745 81.4821 227.279 81.21C226.814 80.9307 226.466 80.5905 226.237 80.1895C226.015 79.7812 225.904 79.305 225.904 78.7607V78.75C225.904 78.1055 226.083 77.5326 226.441 77.0312C226.807 76.5299 227.304 76.1396 227.935 75.8604C228.572 75.5739 229.295 75.4307 230.104 75.4307C230.921 75.4307 231.637 75.5667 232.253 75.8389C232.869 76.111 233.356 76.4906 233.714 76.9775C234.079 77.4574 234.294 78.0088 234.358 78.6318L234.369 78.707H232.554V78.6641C232.461 78.1628 232.203 77.7581 231.78 77.4502C231.358 77.1423 230.799 76.9883 230.104 76.9883C229.646 76.9883 229.245 77.0599 228.901 77.2031C228.565 77.3392 228.3 77.5326 228.106 77.7832C227.913 78.0339 227.816 78.3275 227.816 78.6641V78.6855C227.816 78.9362 227.881 79.1654 228.01 79.373C228.139 79.5736 228.336 79.749 228.601 79.8994C228.873 80.0498 229.224 80.1787 229.653 80.2861L231.437 80.7158C232.547 80.9808 233.349 81.3568 233.843 81.8438C234.337 82.3307 234.584 82.9788 234.584 83.7881V83.7988C234.584 84.472 234.387 85.0664 233.993 85.582C233.606 86.0905 233.073 86.4915 232.393 86.7852C231.719 87.0716 230.957 87.2148 230.104 87.2148ZM241.894 87.2148C240.834 87.2148 239.91 86.9749 239.122 86.4951C238.335 86.0153 237.722 85.335 237.285 84.4541C236.856 83.5732 236.641 82.5277 236.641 81.3174V81.2959C236.641 80.0856 236.856 79.0436 237.285 78.1699C237.722 77.2891 238.335 76.6123 239.122 76.1396C239.91 75.667 240.83 75.4307 241.883 75.4307C242.95 75.4307 243.874 75.667 244.655 76.1396C245.442 76.6123 246.051 77.2891 246.481 78.1699C246.918 79.0436 247.136 80.0856 247.136 81.2959V81.3174C247.136 82.5277 246.918 83.5732 246.481 84.4541C246.051 85.335 245.446 86.0153 244.665 86.4951C243.885 86.9749 242.961 87.2148 241.894 87.2148ZM241.894 85.5605C242.588 85.5605 243.183 85.3923 243.677 85.0557C244.171 84.7191 244.551 84.2357 244.816 83.6055C245.088 82.9753 245.224 82.2126 245.224 81.3174V81.2959C245.224 80.4079 245.088 79.6488 244.816 79.0186C244.551 78.3883 244.168 77.9085 243.666 77.5791C243.172 77.2497 242.578 77.085 241.883 77.085C241.203 77.085 240.612 77.2497 240.111 77.5791C239.609 77.9085 239.223 78.3883 238.95 79.0186C238.685 79.6488 238.553 80.4079 238.553 81.2959V81.3174C238.553 82.2126 238.685 82.9753 238.95 83.6055C239.223 84.2357 239.609 84.7191 240.111 85.0557C240.612 85.3923 241.206 85.5605 241.894 85.5605ZM249.73 87V75.6348H251.599V77.2998H251.707C252 76.734 252.43 76.2829 252.996 75.9463C253.561 75.6025 254.267 75.4307 255.112 75.4307C256.372 75.4307 257.346 75.8031 258.034 76.5479C258.721 77.2855 259.065 78.3132 259.065 79.6309V87H257.196V80.0176C257.196 79.0436 256.977 78.3132 256.541 77.8262C256.111 77.332 255.452 77.085 254.564 77.085C253.962 77.085 253.44 77.2174 252.996 77.4824C252.552 77.7402 252.208 78.109 251.964 78.5889C251.721 79.0687 251.599 79.638 251.599 80.2969V87H249.73ZM268.69 90.8994C268.539 90.8994 268.378 90.8923 268.206 90.8779C268.041 90.8636 267.898 90.8457 267.776 90.8242V89.2988C267.87 89.3132 267.977 89.3239 268.099 89.3311C268.22 89.3454 268.342 89.3525 268.464 89.3525C269.023 89.3525 269.474 89.2344 269.817 88.998C270.168 88.7617 270.451 88.3177 270.666 87.666L270.892 87.0107L266.681 75.6348H268.679L272.063 85.8291L271.504 85.0449H272.213L271.654 85.8291L275.038 75.6348H277.004L272.567 87.6982C272.281 88.486 271.966 89.1126 271.622 89.5781C271.286 90.0508 270.881 90.3874 270.408 90.5879C269.943 90.7956 269.37 90.8994 268.69 90.8994ZM283.444 87.2148C282.384 87.2148 281.46 86.9749 280.672 86.4951C279.884 86.0153 279.272 85.335 278.835 84.4541C278.406 83.5732 278.191 82.5277 278.191 81.3174V81.2959C278.191 80.0856 278.406 79.0436 278.835 78.1699C279.272 77.2891 279.884 76.6123 280.672 76.1396C281.46 75.667 282.38 75.4307 283.433 75.4307C284.5 75.4307 285.424 75.667 286.204 76.1396C286.992 76.6123 287.601 77.2891 288.031 78.1699C288.468 79.0436 288.686 80.0856 288.686 81.2959V81.3174C288.686 82.5277 288.468 83.5732 288.031 84.4541C287.601 85.335 286.996 86.0153 286.215 86.4951C285.435 86.9749 284.511 87.2148 283.444 87.2148ZM283.444 85.5605C284.138 85.5605 284.733 85.3923 285.227 85.0557C285.721 84.7191 286.101 84.2357 286.366 83.6055C286.638 82.9753 286.774 82.2126 286.774 81.3174V81.2959C286.774 80.4079 286.638 79.6488 286.366 79.0186C286.101 78.3883 285.718 77.9085 285.216 77.5791C284.722 77.2497 284.128 77.085 283.433 77.085C282.753 77.085 282.162 77.2497 281.661 77.5791C281.159 77.9085 280.773 78.3883 280.5 79.0186C280.235 79.6488 280.103 80.4079 280.103 81.2959V81.3174C280.103 82.2126 280.235 82.9753 280.5 83.6055C280.773 84.2357 281.159 84.7191 281.661 85.0557C282.162 85.3923 282.756 85.5605 283.444 85.5605ZM295.126 87.2148C294.281 87.2148 293.564 87.0465 292.977 86.71C292.397 86.3734 291.957 85.89 291.656 85.2598C291.355 84.6296 291.205 83.8776 291.205 83.0039V75.6348H293.074V82.6172C293.074 83.584 293.282 84.318 293.697 84.8193C294.112 85.3135 294.764 85.5605 295.652 85.5605C296.125 85.5605 296.547 85.4854 296.92 85.335C297.292 85.1846 297.607 84.9697 297.865 84.6904C298.13 84.4111 298.33 84.0745 298.466 83.6807C298.603 83.2796 298.671 82.832 298.671 82.3379V75.6348H300.54V87H298.671V85.3457H298.563C298.37 85.7181 298.112 86.0439 297.79 86.3232C297.467 86.6025 297.084 86.821 296.64 86.9785C296.196 87.1361 295.691 87.2148 295.126 87.2148ZM313.892 87.2148C312.825 87.2148 311.897 86.9714 311.11 86.4844C310.329 85.9974 309.724 85.3135 309.294 84.4326C308.865 83.5446 308.65 82.499 308.65 81.2959V81.2852C308.65 80.0964 308.865 79.0651 309.294 78.1914C309.724 77.3105 310.329 76.6302 311.11 76.1504C311.897 75.6706 312.818 75.4307 313.87 75.4307C314.809 75.4307 315.614 75.6025 316.287 75.9463C316.961 76.29 317.494 76.7448 317.888 77.3105C318.282 77.8763 318.525 78.4886 318.618 79.1475L318.629 79.2227H316.792L316.771 79.1689C316.635 78.6032 316.323 78.1162 315.836 77.708C315.356 77.2926 314.701 77.085 313.87 77.085C313.204 77.085 312.621 77.2568 312.119 77.6006C311.625 77.9443 311.242 78.4313 310.97 79.0615C310.698 79.6917 310.562 80.4365 310.562 81.2959V81.3066C310.562 82.1875 310.698 82.9466 310.97 83.584C311.249 84.2142 311.64 84.7012 312.141 85.0449C312.642 85.3887 313.222 85.5605 313.881 85.5605C314.655 85.5605 315.285 85.3779 315.772 85.0127C316.259 84.6475 316.595 84.1462 316.781 83.5088L316.803 83.4336H318.64L318.629 83.5303C318.5 84.2321 318.228 84.8623 317.813 85.4209C317.405 85.9723 316.871 86.4092 316.212 86.7314C315.553 87.0537 314.78 87.2148 313.892 87.2148ZM321.18 87V71.1768H323.049V87H321.18ZM329.521 87.2148C328.791 87.2148 328.139 87.0752 327.566 86.7959C327 86.5166 326.553 86.1227 326.223 85.6143C325.901 85.0986 325.74 84.4971 325.74 83.8096V83.7881C325.74 83.1221 325.901 82.5527 326.223 82.0801C326.546 81.6003 327.015 81.2243 327.631 80.9521C328.247 80.6729 328.991 80.5081 329.865 80.458L334.065 80.2109V81.6826L330.091 81.9297C329.281 81.9727 328.673 82.1517 328.264 82.4668C327.856 82.7819 327.652 83.2152 327.652 83.7666V83.7881C327.652 84.3467 327.863 84.7871 328.286 85.1094C328.708 85.4316 329.256 85.5928 329.93 85.5928C330.538 85.5928 331.082 85.4674 331.562 85.2168C332.049 84.9661 332.432 84.626 332.712 84.1963C332.991 83.7594 333.131 83.2689 333.131 82.7246V79.2764C333.131 78.5817 332.916 78.0446 332.486 77.665C332.056 77.2783 331.43 77.085 330.606 77.085C329.897 77.085 329.321 77.2246 328.877 77.5039C328.44 77.7832 328.157 78.1628 328.028 78.6426L328.007 78.707H326.18L326.191 78.6104C326.263 78.0016 326.488 77.4574 326.868 76.9775C327.255 76.4977 327.767 76.1217 328.404 75.8496C329.049 75.5703 329.797 75.4307 330.649 75.4307C331.559 75.4307 332.336 75.5811 332.98 75.8818C333.632 76.1826 334.13 76.6159 334.473 77.1816C334.824 77.7402 335 78.4062 335 79.1797V87H333.131V85.2383H333.023C332.794 85.6465 332.5 85.9974 332.142 86.291C331.791 86.5846 331.394 86.8138 330.95 86.9785C330.513 87.1361 330.037 87.2148 329.521 87.2148ZM338.163 87V75.6348H340.032V87H338.163ZM339.098 73.583C338.761 73.583 338.471 73.4648 338.228 73.2285C337.991 72.985 337.873 72.695 337.873 72.3584C337.873 72.0146 337.991 71.7246 338.228 71.4883C338.471 71.252 338.761 71.1338 339.098 71.1338C339.441 71.1338 339.732 71.252 339.968 71.4883C340.211 71.7246 340.333 72.0146 340.333 72.3584C340.333 72.695 340.211 72.985 339.968 73.2285C339.732 73.4648 339.441 73.583 339.098 73.583ZM343.26 87V75.6348H345.129V77.332H345.237C345.487 76.7448 345.881 76.2829 346.418 75.9463C346.955 75.6025 347.593 75.4307 348.33 75.4307C348.846 75.4307 349.308 75.5166 349.716 75.6885C350.132 75.8532 350.49 76.0931 350.79 76.4082C351.091 76.7161 351.328 77.085 351.499 77.5146H351.596C351.804 77.085 352.083 76.7161 352.434 76.4082C352.785 76.0931 353.189 75.8532 353.648 75.6885C354.106 75.5166 354.597 75.4307 355.12 75.4307C355.879 75.4307 356.53 75.5811 357.075 75.8818C357.626 76.1755 358.049 76.6016 358.342 77.1602C358.636 77.7116 358.783 78.374 358.783 79.1475V87H356.913V79.5771C356.913 79.0329 356.824 78.5781 356.645 78.2129C356.466 77.8405 356.201 77.5612 355.85 77.375C355.499 77.1816 355.066 77.085 354.55 77.085C354.035 77.085 353.58 77.2031 353.186 77.4395C352.799 77.6686 352.495 77.9837 352.273 78.3848C352.058 78.7858 351.951 79.237 351.951 79.7383V87H350.081V79.3301C350.081 78.8789 349.985 78.485 349.791 78.1484C349.598 77.8118 349.326 77.5505 348.975 77.3643C348.624 77.1781 348.212 77.085 347.74 77.085C347.238 77.085 346.791 77.2103 346.397 77.4609C346.01 77.7116 345.702 78.0518 345.473 78.4814C345.244 78.904 345.129 79.3802 345.129 79.9102V87H343.26ZM371.232 87.1504C370.137 87.1504 369.327 86.9105 368.805 86.4307C368.282 85.9437 368.02 85.1595 368.02 84.0781V77.1816H366.302V75.6348H368.02V72.627H369.954V75.6348H372.274V77.1816H369.954V83.8525C369.954 84.4827 370.083 84.9268 370.341 85.1846C370.599 85.4352 371.003 85.5605 371.555 85.5605C371.691 85.5605 371.812 85.557 371.92 85.5498C372.034 85.5355 372.153 85.5247 372.274 85.5176V87.0645C372.131 87.0859 371.966 87.1038 371.78 87.1182C371.601 87.1396 371.419 87.1504 371.232 87.1504ZM379.337 87.2148C378.277 87.2148 377.353 86.9749 376.566 86.4951C375.778 86.0153 375.166 85.335 374.729 84.4541C374.299 83.5732 374.084 82.5277 374.084 81.3174V81.2959C374.084 80.0856 374.299 79.0436 374.729 78.1699C375.166 77.2891 375.778 76.6123 376.566 76.1396C377.353 75.667 378.274 75.4307 379.326 75.4307C380.393 75.4307 381.317 75.667 382.098 76.1396C382.886 76.6123 383.494 77.2891 383.924 78.1699C384.361 79.0436 384.579 80.0856 384.579 81.2959V81.3174C384.579 82.5277 384.361 83.5732 383.924 84.4541C383.494 85.335 382.889 86.0153 382.109 86.4951C381.328 86.9749 380.404 87.2148 379.337 87.2148ZM379.337 85.5605C380.032 85.5605 380.626 85.3923 381.12 85.0557C381.614 84.7191 381.994 84.2357 382.259 83.6055C382.531 82.9753 382.667 82.2126 382.667 81.3174V81.2959C382.667 80.4079 382.531 79.6488 382.259 79.0186C381.994 78.3883 381.611 77.9085 381.11 77.5791C380.615 77.2497 380.021 77.085 379.326 77.085C378.646 77.085 378.055 77.2497 377.554 77.5791C377.053 77.9085 376.666 78.3883 376.394 79.0186C376.129 79.6488 375.996 80.4079 375.996 81.2959V81.3174C375.996 82.2126 376.129 82.9753 376.394 83.6055C376.666 84.2357 377.053 84.7191 377.554 85.0557C378.055 85.3923 378.65 85.5605 379.337 85.5605ZM398.35 87.2148C397.82 87.2148 397.326 87.1289 396.868 86.957C396.417 86.7852 396.012 86.5452 395.654 86.2373C395.303 85.9294 395.01 85.5605 394.773 85.1309H394.677V87H392.807V71.1768H394.677V77.4824H394.773C395.002 77.0599 395.296 76.6982 395.654 76.3975C396.012 76.0895 396.42 75.8532 396.879 75.6885C397.344 75.5166 397.842 75.4307 398.372 75.4307C399.331 75.4307 400.166 75.6742 400.875 76.1611C401.591 76.641 402.149 77.3213 402.551 78.2021C402.952 79.083 403.152 80.1178 403.152 81.3066V81.3174C403.152 82.5062 402.952 83.5446 402.551 84.4326C402.157 85.3135 401.598 85.9974 400.875 86.4844C400.159 86.9714 399.317 87.2148 398.35 87.2148ZM397.953 85.5605C398.64 85.5605 399.228 85.3923 399.715 85.0557C400.202 84.7119 400.578 84.2214 400.843 83.584C401.108 82.9466 401.24 82.1911 401.24 81.3174V81.3066C401.24 80.4329 401.108 79.681 400.843 79.0508C400.578 78.4206 400.202 77.9372 399.715 77.6006C399.228 77.2568 398.64 77.085 397.953 77.085C397.294 77.085 396.714 77.2568 396.213 77.6006C395.719 77.9443 395.332 78.4349 395.052 79.0723C394.78 79.7025 394.644 80.4473 394.644 81.3066V81.3174C394.644 82.1768 394.78 82.9251 395.052 83.5625C395.332 84.1999 395.719 84.694 396.213 85.0449C396.714 85.3887 397.294 85.5605 397.953 85.5605ZM410.408 87.2148C409.32 87.2148 408.385 86.9749 407.605 86.4951C406.831 86.0153 406.233 85.3385 405.811 84.4648C405.395 83.584 405.188 82.5492 405.188 81.3604V81.3496C405.188 80.1751 405.395 79.1439 405.811 78.2559C406.233 77.3678 406.828 76.6768 407.594 76.1826C408.36 75.6813 409.259 75.4307 410.29 75.4307C411.321 75.4307 412.209 75.6706 412.954 76.1504C413.699 76.623 414.268 77.2891 414.662 78.1484C415.063 79.0007 415.264 79.9961 415.264 81.1348V81.833H406.133V80.3613H414.329L413.395 81.7148V80.9951C413.395 80.1071 413.262 79.3766 412.997 78.8037C412.732 78.2236 412.363 77.7939 411.891 77.5146C411.425 77.2282 410.888 77.085 410.279 77.085C409.671 77.085 409.126 77.2354 408.647 77.5361C408.167 77.8298 407.787 78.2666 407.508 78.8467C407.229 79.4268 407.089 80.1429 407.089 80.9951V81.7148C407.089 82.5241 407.225 83.2152 407.497 83.7881C407.769 84.3538 408.156 84.7907 408.657 85.0986C409.166 85.3994 409.764 85.5498 410.451 85.5498C410.945 85.5498 411.382 85.4782 411.762 85.335C412.141 85.1917 412.456 85.002 412.707 84.7656C412.958 84.5293 413.137 84.2715 413.244 83.9922L413.276 83.8955H415.124L415.103 83.9922C415.01 84.4219 414.834 84.8301 414.576 85.2168C414.318 85.6035 413.985 85.9473 413.577 86.248C413.176 86.5488 412.707 86.7852 412.17 86.957C411.64 87.1289 411.053 87.2148 410.408 87.2148ZM183.416 111V102.545H184.441L189.287 109.494L188.584 109.125H189.123V102.545H190.166V111H189.14L184.294 104.074L184.998 104.443H184.459V111H183.416ZM192.336 111V104.684H193.356V111H192.336ZM192.852 103.465C192.661 103.465 192.495 103.396 192.354 103.26C192.217 103.119 192.149 102.953 192.149 102.762C192.149 102.566 192.217 102.4 192.354 102.264C192.495 102.127 192.661 102.059 192.852 102.059C193.047 102.059 193.213 102.127 193.35 102.264C193.487 102.4 193.555 102.566 193.555 102.762C193.555 102.953 193.487 103.119 193.35 103.26C193.213 103.396 193.047 103.465 192.852 103.465ZM197.982 111.111C197.392 111.111 196.88 110.977 196.447 110.707C196.013 110.438 195.677 110.057 195.439 109.564C195.2 109.072 195.081 108.492 195.081 107.824V107.812C195.081 107.156 195.199 106.586 195.433 106.102C195.671 105.617 196.007 105.242 196.441 104.977C196.874 104.707 197.386 104.572 197.976 104.572C198.488 104.572 198.929 104.662 199.3 104.842C199.671 105.021 199.968 105.264 200.191 105.568C200.413 105.869 200.556 106.207 200.618 106.582L200.624 106.617H199.611L199.605 106.6C199.527 106.287 199.349 106.021 199.072 105.803C198.794 105.584 198.429 105.475 197.976 105.475C197.597 105.475 197.269 105.57 196.991 105.762C196.714 105.953 196.499 106.225 196.347 106.576C196.199 106.924 196.124 107.336 196.124 107.812V107.824C196.124 108.309 196.2 108.73 196.353 109.09C196.505 109.445 196.72 109.721 196.997 109.916C197.275 110.111 197.601 110.209 197.976 110.209C198.402 110.209 198.749 110.117 199.019 109.934C199.288 109.75 199.482 109.482 199.599 109.131L199.611 109.096L200.618 109.09L200.607 109.154C200.521 109.533 200.368 109.871 200.15 110.168C199.931 110.461 199.642 110.691 199.283 110.859C198.923 111.027 198.49 111.111 197.982 111.111ZM204.811 111.111C204.209 111.111 203.692 110.979 203.258 110.713C202.828 110.447 202.496 110.072 202.262 109.588C202.031 109.1 201.916 108.525 201.916 107.865V107.859C201.916 107.207 202.031 106.635 202.262 106.143C202.496 105.65 202.826 105.266 203.252 104.988C203.678 104.711 204.176 104.572 204.746 104.572C205.32 104.572 205.813 104.705 206.223 104.971C206.637 105.236 206.953 105.607 207.172 106.084C207.395 106.557 207.506 107.107 207.506 107.736V108.135H202.444V107.32H206.985L206.481 108.064V107.66C206.481 107.164 206.406 106.756 206.258 106.436C206.11 106.115 205.904 105.877 205.643 105.721C205.381 105.561 205.08 105.48 204.74 105.48C204.401 105.48 204.096 105.564 203.826 105.732C203.561 105.896 203.35 106.141 203.194 106.465C203.037 106.789 202.959 107.188 202.959 107.66V108.064C202.959 108.514 203.035 108.898 203.188 109.219C203.34 109.535 203.557 109.779 203.838 109.951C204.119 110.119 204.451 110.203 204.834 110.203C205.119 110.203 205.367 110.164 205.578 110.086C205.789 110.008 205.963 109.908 206.1 109.787C206.236 109.666 206.332 109.543 206.387 109.418L206.41 109.365H207.43L207.418 109.412C207.363 109.627 207.266 109.836 207.125 110.039C206.988 110.238 206.811 110.42 206.592 110.584C206.373 110.744 206.113 110.873 205.813 110.971C205.516 111.064 205.182 111.111 204.811 111.111ZM214.947 111.047C214.299 111.047 213.828 110.916 213.535 110.654C213.246 110.393 213.101 109.961 213.101 109.359V105.527H212.105V104.684H213.101V103.049H214.156V104.684H215.539V105.527H214.156V109.102C214.156 109.473 214.226 109.74 214.367 109.904C214.508 110.064 214.742 110.145 215.07 110.145C215.16 110.145 215.236 110.143 215.299 110.139C215.365 110.135 215.445 110.129 215.539 110.121V110.988C215.441 111.004 215.344 111.018 215.246 111.029C215.148 111.041 215.049 111.047 214.947 111.047ZM217.182 111V104.684H218.202V105.621H218.296C218.417 105.289 218.622 105.031 218.911 104.848C219.2 104.664 219.557 104.572 219.983 104.572C220.081 104.572 220.177 104.578 220.27 104.59C220.368 104.598 220.442 104.605 220.493 104.613V105.604C220.387 105.584 220.284 105.57 220.182 105.562C220.085 105.551 219.979 105.545 219.866 105.545C219.542 105.545 219.255 105.609 219.005 105.738C218.755 105.867 218.557 106.047 218.413 106.277C218.272 106.508 218.202 106.777 218.202 107.086V111H217.182ZM222.47 113.215C222.404 113.215 222.33 113.211 222.248 113.203C222.166 113.199 222.09 113.191 222.019 113.18V112.342C222.082 112.354 222.15 112.361 222.224 112.365C222.299 112.369 222.371 112.371 222.441 112.371C222.73 112.371 222.966 112.297 223.15 112.148C223.338 112 223.488 111.744 223.601 111.381L223.718 111.006L221.381 104.684H222.47L224.416 110.52L224.011 109.881H224.492L224.088 110.52L226.027 104.684H227.099L224.632 111.387C224.461 111.859 224.279 112.229 224.088 112.494C223.896 112.76 223.672 112.945 223.414 113.051C223.16 113.16 222.845 113.215 222.47 113.215ZM234.306 111.047C233.658 111.047 233.187 110.916 232.894 110.654C232.605 110.393 232.46 109.961 232.46 109.359V105.527H231.464V104.684H232.46V103.049H233.515V104.684H234.898V105.527H233.515V109.102C233.515 109.473 233.585 109.74 233.726 109.904C233.867 110.064 234.101 110.145 234.429 110.145C234.519 110.145 234.595 110.143 234.658 110.139C234.724 110.135 234.804 110.129 234.898 110.121V110.988C234.8 111.004 234.703 111.018 234.605 111.029C234.507 111.041 234.408 111.047 234.306 111.047ZM236.6 111V102.176H237.619V105.633H237.713C237.873 105.297 238.104 105.037 238.405 104.854C238.705 104.666 239.088 104.572 239.553 104.572C240.026 104.572 240.426 104.664 240.754 104.848C241.082 105.027 241.332 105.291 241.504 105.639C241.676 105.986 241.762 106.41 241.762 106.91V111H240.742V107.156C240.742 106.586 240.621 106.164 240.379 105.891C240.141 105.613 239.77 105.475 239.266 105.475C238.93 105.475 238.639 105.547 238.393 105.691C238.147 105.836 237.955 106.041 237.819 106.307C237.686 106.572 237.619 106.891 237.619 107.262V111H236.6ZM246.323 111.111C245.726 111.111 245.208 110.98 244.771 110.719C244.337 110.453 244.001 110.076 243.763 109.588C243.529 109.1 243.411 108.52 243.411 107.848V107.836C243.411 107.16 243.529 106.578 243.763 106.09C244.001 105.602 244.337 105.227 244.771 104.965C245.208 104.703 245.726 104.572 246.323 104.572C246.925 104.572 247.443 104.703 247.876 104.965C248.31 105.227 248.644 105.602 248.878 106.09C249.116 106.578 249.236 107.16 249.236 107.836V107.848C249.236 108.52 249.116 109.1 248.878 109.588C248.644 110.076 248.31 110.453 247.876 110.719C247.443 110.98 246.925 111.111 246.323 111.111ZM246.323 110.209C246.722 110.209 247.06 110.115 247.337 109.928C247.614 109.74 247.825 109.471 247.97 109.119C248.118 108.768 248.193 108.344 248.193 107.848V107.836C248.193 107.336 248.118 106.91 247.97 106.559C247.825 106.207 247.614 105.939 247.337 105.756C247.06 105.568 246.722 105.475 246.323 105.475C245.925 105.475 245.587 105.568 245.31 105.756C245.032 105.939 244.82 106.207 244.671 106.559C244.527 106.91 244.454 107.336 244.454 107.836V107.848C244.454 108.344 244.527 108.768 244.671 109.119C244.82 109.471 245.032 109.74 245.31 109.928C245.587 110.115 245.925 110.209 246.323 110.209ZM253.053 111.111C252.576 111.111 252.176 111.021 251.852 110.842C251.527 110.658 251.283 110.393 251.119 110.045C250.959 109.693 250.879 109.27 250.879 108.773V104.684H251.899V108.527C251.899 109.094 252.008 109.516 252.227 109.793C252.449 110.07 252.813 110.209 253.316 110.209C253.594 110.209 253.838 110.168 254.049 110.086C254.264 110.004 254.443 109.887 254.588 109.734C254.732 109.578 254.84 109.391 254.91 109.172C254.984 108.949 255.022 108.699 255.022 108.422V104.684H256.041V111H255.022V110.057H254.928C254.826 110.279 254.688 110.471 254.512 110.631C254.336 110.787 254.125 110.906 253.879 110.988C253.637 111.07 253.361 111.111 253.053 111.111ZM260.667 113.227C260.159 113.227 259.716 113.154 259.337 113.01C258.958 112.869 258.655 112.668 258.429 112.406C258.206 112.148 258.067 111.848 258.013 111.504L258.024 111.498H259.079L259.085 111.504C259.14 111.742 259.304 111.938 259.577 112.09C259.851 112.246 260.214 112.324 260.667 112.324C261.233 112.324 261.675 112.195 261.991 111.938C262.311 111.684 262.472 111.324 262.472 110.859V109.582H262.378C262.245 109.812 262.079 110.01 261.88 110.174C261.681 110.338 261.456 110.463 261.206 110.549C260.956 110.631 260.686 110.672 260.397 110.672C259.854 110.672 259.384 110.543 258.985 110.285C258.591 110.023 258.286 109.664 258.071 109.207C257.856 108.75 257.749 108.227 257.749 107.637V107.625C257.749 107.035 257.856 106.512 258.071 106.055C258.29 105.594 258.599 105.232 258.997 104.971C259.395 104.705 259.87 104.572 260.421 104.572C260.718 104.572 260.991 104.619 261.241 104.713C261.491 104.807 261.712 104.939 261.903 105.111C262.099 105.283 262.261 105.488 262.39 105.727H262.46V104.684H263.479V110.912C263.479 111.381 263.364 111.789 263.134 112.137C262.907 112.484 262.583 112.752 262.161 112.939C261.739 113.131 261.241 113.227 260.667 113.227ZM260.62 109.77C261.011 109.77 261.345 109.68 261.622 109.5C261.903 109.316 262.118 109.064 262.267 108.744C262.419 108.424 262.495 108.055 262.495 107.637V107.625C262.495 107.207 262.419 106.836 262.267 106.512C262.118 106.188 261.903 105.934 261.622 105.75C261.345 105.566 261.011 105.475 260.62 105.475C260.229 105.475 259.897 105.566 259.624 105.75C259.354 105.934 259.147 106.188 259.003 106.512C258.862 106.836 258.792 107.207 258.792 107.625V107.637C258.792 108.055 258.862 108.424 259.003 108.744C259.147 109.064 259.354 109.316 259.624 109.5C259.897 109.68 260.229 109.77 260.62 109.77ZM265.556 111V102.176H266.576V105.633H266.67C266.83 105.297 267.06 105.037 267.361 104.854C267.662 104.666 268.045 104.572 268.51 104.572C268.982 104.572 269.383 104.664 269.711 104.848C270.039 105.027 270.289 105.291 270.461 105.639C270.633 105.986 270.719 106.41 270.719 106.91V111H269.699V107.156C269.699 106.586 269.578 106.164 269.336 105.891C269.098 105.613 268.726 105.475 268.223 105.475C267.887 105.475 267.596 105.547 267.349 105.691C267.103 105.836 266.912 106.041 266.775 106.307C266.642 106.572 266.576 106.891 266.576 107.262V111H265.556ZM273.516 111.059C273.309 111.059 273.13 110.984 272.977 110.836C272.829 110.684 272.755 110.504 272.755 110.297C272.755 110.086 272.829 109.906 272.977 109.758C273.13 109.609 273.309 109.535 273.516 109.535C273.727 109.535 273.907 109.609 274.055 109.758C274.204 109.906 274.278 110.086 274.278 110.297C274.278 110.504 274.204 110.684 274.055 110.836C273.907 110.984 273.727 111.059 273.516 111.059ZM277.199 111.059C276.992 111.059 276.812 110.984 276.66 110.836C276.511 110.684 276.437 110.504 276.437 110.297C276.437 110.086 276.511 109.906 276.66 109.758C276.812 109.609 276.992 109.535 277.199 109.535C277.41 109.535 277.589 109.609 277.738 109.758C277.886 109.906 277.961 110.086 277.961 110.297C277.961 110.504 277.886 110.684 277.738 110.836C277.589 110.984 277.41 111.059 277.199 111.059ZM280.881 111.059C280.674 111.059 280.495 110.984 280.342 110.836C280.194 110.684 280.12 110.504 280.12 110.297C280.12 110.086 280.194 109.906 280.342 109.758C280.495 109.609 280.674 109.535 280.881 109.535C281.092 109.535 281.272 109.609 281.42 109.758C281.569 109.906 281.643 110.086 281.643 110.297C281.643 110.504 281.569 110.684 281.42 110.836C281.272 110.984 281.092 111.059 280.881 111.059Z" fill="#FF09E6"/>
<mask id="mask0_2558_5272" style="mask-type:alpha" maskUnits="userSpaceOnUse" x="12" y="132" width="445" height="157">
<rect x="12.5" y="132.5" width="444" height="156" rx="9.5" fill="white" stroke="#FF09E6"/>
</mask>
<g mask="url(#mask0_2558_5272)">
<g filter="url(#filter1_d_2558_5272)">
<path d="M7.1333 215.723C22.1605 200.334 39.9402 198.249 54.9674 213.638C69.9946 229.027 85.0218 229.027 100.049 213.638C115.076 198.249 130.103 198.249 145.13 213.638C160.158 229.027 175.185 229.027 190.212 213.638C205.239 198.249 220.266 198.249 235.294 213.638C250.321 229.027 265.348 229.027 280.375 213.638C295.402 198.249 310.429 198.249 325.457 213.638C340.484 229.027 355.511 229.027 370.538 213.638C385.565 198.249 400.592 198.249 415.62 213.638C430.647 229.027 444.112 230.181 459.139 214.792" stroke="url(#paint0_linear_2558_5272)"/>
</g>
<g filter="url(#filter2_d_2558_5272)">
<path d="M11.438 171.356C11.438 171.356 14.7758 150.542 27.5717 155.959C40.3677 161.377 48.0879 223.817 57.6194 232.726C67.151 241.636 76.6824 212.182 86.2139 201.768C95.7454 191.355 105.277 199.983 114.808 193.164C124.34 186.345 133.871 164.079 143.403 165.618C152.934 167.157 162.466 192.5 171.997 205.211C181.529 217.923 191.934 229.766 201.465 218.994C210.997 208.221 219.655 198.834 229.187 181.245C238.718 163.656 248.25 150.103 257.781 145.103C267.313 140.103 278.21 138.298 287.742 141.867C297.273 145.436 305.439 154.38 314.97 171.211C324.502 188.042 334.033 194.119 343.565 194.295C353.096 194.47 362.628 164.746 372.159 168.525C381.691 172.304 391.222 209.587 400.754 217.853C410.285 226.12 419.817 205.369 429.348 201.01C438.88 196.651 452.069 211.313 456.835 217.329" stroke="url(#paint1_linear_2558_5272)"/>
</g>
<g filter="url(#filter3_d_2558_5272)">
<path d="M9.28571 213.048C9.28571 213.048 18.7364 231.717 34.3381 238.519C49.9398 245.32 52.7318 234.046 62.2315 240.874C71.7313 247.702 81.231 259.114 90.7307 263.502C100.23 267.891 109.73 265.257 119.23 256.77C128.73 248.283 138.229 233.942 147.729 228.292C157.229 222.641 166.728 225.68 176.228 238.519C185.728 251.357 195.228 273.994 204.727 272.093C214.227 270.191 223.727 243.751 233.226 239.238C242.726 234.726 252.226 252.143 261.726 251.778C271.225 251.414 280.725 233.269 290.225 236.397C299.725 239.525 309.224 263.925 318.724 274.916C328.224 285.907 337.723 283.488 347.223 268.561C356.723 253.633 366.222 226.198 375.722 224.37C385.222 222.542 394.722 246.322 404.221 245.179C413.721 244.036 423.221 217.971 432.721 209.68C442.22 201.389 451.72 210.873 456.47 215.615L459.139 218.434" stroke="url(#paint2_linear_2558_5272)"/>
</g>
</g>
<defs>
<filter id="filter0_d_2558_5272" x="0" y="0" width="469" height="307" filterUnits="userSpaceOnUse" color-interpolation-filters="sRGB">
<feFlood flood-opacity="0" result="BackgroundImageFix"/>
<feColorMatrix in="SourceAlpha" type="matrix" values="0 0 0 0 0 0 0 0 0 0 0 0 0 0 0 0 0 0 127 0" result="hardAlpha"/>
<feOffset dy="2"/>
<feGaussianBlur stdDeviation="6"/>
<feComposite in2="hardAlpha" operator="out"/>
<feColorMatrix type="matrix" values="0 0 0 0 0 0 0 0 0 0 0 0 0 0 0 0 0 0 0.08 0"/>
<feBlend mode="normal" in2="BackgroundImageFix" result="effect1_dropShadow_2558_5272"/>
<feBlend mode="normal" in="SourceGraphic" in2="effect1_dropShadow_2558_5272" result="shape"/>
</filter>
<filter id="filter1_d_2558_5272" x="-1.22443" y="194.596" width="468.722" height="40.6765" filterUnits="userSpaceOnUse" color-interpolation-filters="sRGB">
<feFlood flood-opacity="0" result="BackgroundImageFix"/>
<feColorMatrix in="SourceAlpha" type="matrix" values="0 0 0 0 0 0 0 0 0 0 0 0 0 0 0 0 0 0 127 0" result="hardAlpha"/>
<feOffset dy="1"/>
<feGaussianBlur stdDeviation="4"/>
<feComposite in2="hardAlpha" operator="out"/>
<feColorMatrix type="matrix" values="0 0 0 0 1 0 0 0 0 1 0 0 0 0 1 0 0 0 0.6 0"/>
<feBlend mode="normal" in2="BackgroundImageFix" result="effect1_dropShadow_2558_5272"/>
<feBlend mode="normal" in="SourceGraphic" in2="effect1_dropShadow_2558_5272" result="shape"/>
</filter>
<filter id="filter2_d_2558_5272" x="2.94446" y="132.5" width="462.282" height="111.383" filterUnits="userSpaceOnUse" color-interpolation-filters="sRGB">
<feFlood flood-opacity="0" result="BackgroundImageFix"/>
<feColorMatrix in="SourceAlpha" type="matrix" values="0 0 0 0 0 0 0 0 0 0 0 0 0 0 0 0 0 0 127 0" result="hardAlpha"/>
<feOffset dy="1"/>
<feGaussianBlur stdDeviation="4"/>
<feComposite in2="hardAlpha" operator="out"/>
<feColorMatrix type="matrix" values="0 0 0 0 1 0 0 0 0 1 0 0 0 0 1 0 0 0 0.6 0"/>
<feBlend mode="normal" in2="BackgroundImageFix" result="effect1_dropShadow_2558_5272"/>
<feBlend mode="normal" in="SourceGraphic" in2="effect1_dropShadow_2558_5272" result="shape"/>
</filter>
<filter id="filter3_d_2558_5272" x="0.839844" y="198.901" width="466.663" height="92.335" filterUnits="userSpaceOnUse" color-interpolation-filters="sRGB">
<feFlood flood-opacity="0" result="BackgroundImageFix"/>
<feColorMatrix in="SourceAlpha" type="matrix" values="0 0 0 0 0 0 0 0 0 0 0 0 0 0 0 0 0 0 127 0" result="hardAlpha"/>
<feOffset dy="1"/>
<feGaussianBlur stdDeviation="4"/>
<feComposite in2="hardAlpha" operator="out"/>
<feColorMatrix type="matrix" values="0 0 0 0 1 0 0 0 0 1 0 0 0 0 1 0 0 0 0.6 0"/>
<feBlend mode="normal" in2="BackgroundImageFix" result="effect1_dropShadow_2558_5272"/>
<feBlend mode="normal" in="SourceGraphic" in2="effect1_dropShadow_2558_5272" result="shape"/>
</filter>
<linearGradient id="paint0_linear_2558_5272" x1="9.8862" y1="196.69" x2="433.735" y2="210.726" gradientUnits="userSpaceOnUse">
<stop stop-color="#FF00C7"/>
<stop offset="1" stop-color="#FF0000"/>
</linearGradient>
<linearGradient id="paint1_linear_2558_5272" x1="15.5568" y1="176.125" x2="419.02" y2="188.157" gradientUnits="userSpaceOnUse">
<stop stop-color="#FF06C8"/>
<stop offset="1" stop-color="#FF0000"/>
</linearGradient>
<linearGradient id="paint2_linear_2558_5272" x1="11.3697" y1="213.031" x2="398.189" y2="228.644" gradientUnits="userSpaceOnUse">
<stop stop-color="#FF04C8"/>
<stop offset="1" stop-color="#FF0000"/>
</linearGradient>
</defs>
</svg>
