<svg width="89" height="41" viewBox="0 0 89 41" fill="none" xmlns="http://www.w3.org/2000/svg">
<path d="M24.9357 24.6364H28.6364L31.7756 32.2912H31.9205L35.0597 24.6364H38.7603V37H35.8505V29.4055H35.7479L32.7777 36.9215H30.9183L27.9482 29.3633H27.8455V37H24.9357V24.6364ZM44.6586 37H41.4469L45.6184 24.6364H49.5968L53.7683 37H50.5566L47.6529 27.7514H47.5563L44.6586 37ZM44.2299 32.1342H50.943V34.4041H44.2299V32.1342ZM59.4477 24.6364V37H56.4594V24.6364H59.4477ZM62.6837 37V24.6364H65.672V34.5732H70.8154V37H62.6837Z" fill="#0500E3"/>
<rect x="9" y="13" width="8" height="8" fill="white" stroke="#0500E3"/>
<rect x="63" y="1" width="8" height="8" fill="white" stroke="#0500E3"/>
<rect x="72" y="17" width="8" height="8" fill="white" stroke="#0500E3"/>
<rect x="80" y="9" width="8" height="8" fill="white" stroke="#0500E3"/>
<rect x="72" y="9" width="8" height="8" fill="white" stroke="#0500E3"/>
<rect x="9" y="29" width="8" height="8" fill="white" stroke="#0500E3"/>
<rect x="1" y="21" width="8" height="8" fill="white" stroke="#0500E3"/>
<rect x="9" y="21" width="8" height="8" fill="white" stroke="#0500E3"/>
</svg>
