<svg width="142" height="127" viewBox="0 0 142 127" fill="none" xmlns="http://www.w3.org/2000/svg">
<circle opacity="0.8" cx="49.7106" cy="49.916" r="35.3941" transform="rotate(-145.371 49.7106 49.916)" fill="url(#paint0_radial_2432_3789)"/>
<circle opacity="0.8" cx="49.7106" cy="49.916" r="35.3941" transform="rotate(-145.371 49.7106 49.916)" fill="url(#paint1_radial_2432_3789)"/>
<circle opacity="0.8" cx="92.2889" cy="77.6812" r="35.3941" transform="rotate(-145.371 92.2889 77.6812)" fill="url(#paint2_radial_2432_3789)"/>
<circle opacity="0.8" cx="92.2889" cy="77.6812" r="35.3941" transform="rotate(-145.371 92.2889 77.6812)" fill="url(#paint3_radial_2432_3789)"/>
<circle opacity="0.8" cx="49.7106" cy="49.9126" r="35.3941" transform="rotate(-145.371 49.7106 49.9126)" fill="url(#paint4_radial_2432_3789)"/>
<circle opacity="0.8" cx="49.7106" cy="49.9126" r="35.3941" transform="rotate(-145.371 49.7106 49.9126)" fill="url(#paint5_radial_2432_3789)"/>
<g filter="url(#filter0_d_2432_3789)">
<circle cx="63.4153" cy="67.3169" r="37.0249" fill="white"/>
</g>
<circle opacity="0.2" cx="63.4153" cy="67.3169" r="37.0249" fill="url(#paint6_linear_2432_3789)"/>
<path fill-rule="evenodd" clip-rule="evenodd" d="M49.5134 63.6144H44.9043V68.2329H49.5134V63.6144ZM54.1345 63.6144H49.5254V68.2329H54.1345V63.6144ZM44.9045 68.2529H49.5136V72.8715H44.9045V68.2529ZM31.946 63.6144H36.5672V68.2325H31.946V63.6144ZM36.5814 63.6144H41.2025V68.2325H36.5814V63.6144ZM36.5672 68.2525H31.946V72.8705H36.5672V68.2525ZM36.5814 68.2525H41.2025V72.8705H36.5814V68.2525ZM61.7647 63.6144H57.8631V68.2329H61.7647V63.6144ZM61.7647 68.2529H57.863V72.8715H61.7647V68.2529ZM68.9705 63.6144H65.268V67.3169H68.9705V63.6144ZM72.6733 63.6144H77.2779H77.2824H81.887V68.2329H77.2824H77.2779H72.6733V63.6144ZM81.887 68.2529H77.2779V72.8715H81.887V68.2529ZM85.6317 63.6144H90.2528V68.2325H85.6317V63.6144ZM90.2671 63.6144H94.8882V68.2325H90.2671V63.6144ZM90.2529 68.2525H85.6318V72.8706H90.2529V68.2525ZM90.2671 68.2525H94.8882V72.8706H90.2671V68.2525Z" fill="url(#paint7_linear_2432_3789)"/>
<defs>
<filter id="filter0_d_2432_3789" x="14.3904" y="18.292" width="98.0498" height="98.0498" filterUnits="userSpaceOnUse" color-interpolation-filters="sRGB">
<feFlood flood-opacity="0" result="BackgroundImageFix"/>
<feColorMatrix in="SourceAlpha" type="matrix" values="0 0 0 0 0 0 0 0 0 0 0 0 0 0 0 0 0 0 127 0" result="hardAlpha"/>
<feOffset/>
<feGaussianBlur stdDeviation="6"/>
<feComposite in2="hardAlpha" operator="out"/>
<feColorMatrix type="matrix" values="0 0 0 0 0 0 0 0 0 0 0 0 0 0 0 0 0 0 0.1 0"/>
<feBlend mode="normal" in2="BackgroundImageFix" result="effect1_dropShadow_2432_3789"/>
<feBlend mode="normal" in="SourceGraphic" in2="effect1_dropShadow_2432_3789" result="shape"/>
</filter>
<radialGradient id="paint0_radial_2432_3789" cx="0" cy="0" r="1" gradientUnits="userSpaceOnUse" gradientTransform="translate(44.6985 36.9216) rotate(86.5732) scale(20.7042)">
<stop stop-color="#FF08E6"/>
<stop offset="1" stop-color="#FF00E5" stop-opacity="0"/>
</radialGradient>
<radialGradient id="paint1_radial_2432_3789" cx="0" cy="0" r="1" gradientUnits="userSpaceOnUse" gradientTransform="translate(59.3016 51.401) rotate(110.943) scale(26.8332)">
<stop stop-color="#00F0FF"/>
<stop offset="1" stop-color="#00F0FF" stop-opacity="0"/>
</radialGradient>
<radialGradient id="paint2_radial_2432_3789" cx="0" cy="0" r="1" gradientUnits="userSpaceOnUse" gradientTransform="translate(87.2768 64.6869) rotate(86.5732) scale(20.7042)">
<stop stop-color="#FF08E6"/>
<stop offset="1" stop-color="#FF00E5" stop-opacity="0"/>
</radialGradient>
<radialGradient id="paint3_radial_2432_3789" cx="0" cy="0" r="1" gradientUnits="userSpaceOnUse" gradientTransform="translate(101.88 79.1663) rotate(110.943) scale(26.8332)">
<stop stop-color="#00F0FF"/>
<stop offset="1" stop-color="#00F0FF" stop-opacity="0"/>
</radialGradient>
<radialGradient id="paint4_radial_2432_3789" cx="0" cy="0" r="1" gradientUnits="userSpaceOnUse" gradientTransform="translate(44.6985 36.9182) rotate(86.5732) scale(20.7042)">
<stop stop-color="#FF08E6"/>
<stop offset="1" stop-color="#FF00E5" stop-opacity="0"/>
</radialGradient>
<radialGradient id="paint5_radial_2432_3789" cx="0" cy="0" r="1" gradientUnits="userSpaceOnUse" gradientTransform="translate(59.3016 51.3977) rotate(110.943) scale(26.8332)">
<stop stop-color="#00F0FF"/>
<stop offset="1" stop-color="#00F0FF" stop-opacity="0"/>
</radialGradient>
<linearGradient id="paint6_linear_2432_3789" x1="96.0151" y1="100.701" x2="48.0116" y2="51.5771" gradientUnits="userSpaceOnUse">
<stop/>
<stop offset="1" stop-color="white" stop-opacity="0"/>
</linearGradient>
<linearGradient id="paint7_linear_2432_3789" x1="93.4128" y1="67.5321" x2="36.0387" y2="62.841" gradientUnits="userSpaceOnUse">
<stop stop-color="#00F0FF"/>
<stop offset="1" stop-color="#0500E3"/>
</linearGradient>
</defs>
</svg>
