<svg width="140" height="140" viewBox="0 0 140 140" fill="none" xmlns="http://www.w3.org/2000/svg">
<g clip-path="url(#clip0_2738_7638)">
<circle opacity="0.8" cx="55.2371" cy="55.2404" r="35.3941" transform="rotate(-145.371 55.2371 55.2404)" fill="url(#paint0_radial_2738_7638)"/>
<circle opacity="0.8" cx="55.2371" cy="55.2404" r="35.3941" transform="rotate(-145.371 55.2371 55.2404)" fill="url(#paint1_radial_2738_7638)"/>
<circle opacity="0.8" cx="97.8154" cy="83.0057" r="35.3941" transform="rotate(-145.371 97.8154 83.0057)" fill="url(#paint2_radial_2738_7638)"/>
<circle opacity="0.8" cx="97.8154" cy="83.0057" r="35.3941" transform="rotate(-145.371 97.8154 83.0057)" fill="url(#paint3_radial_2738_7638)"/>
<circle opacity="0.8" cx="55.2371" cy="55.237" r="35.3941" transform="rotate(-145.371 55.2371 55.237)" fill="url(#paint4_radial_2738_7638)"/>
<circle opacity="0.8" cx="55.2371" cy="55.237" r="35.3941" transform="rotate(-145.371 55.2371 55.237)" fill="url(#paint5_radial_2738_7638)"/>
<g filter="url(#filter0_d_2738_7638)">
<circle cx="68.9415" cy="72.6413" r="37.0249" fill="white"/>
</g>
<circle opacity="0.2" cx="68.9415" cy="72.6413" r="37.0249" fill="url(#paint6_linear_2738_7638)"/>
<path fill-rule="evenodd" clip-rule="evenodd" d="M55.0396 68.9389H50.4305V73.5574H55.0396V68.9389ZM59.6607 68.9389H55.0516V73.5574H59.6607V68.9389ZM50.4307 73.5774H55.0398V78.1959H50.4307V73.5774ZM37.4723 68.9389H42.0934V73.5569H37.4723V68.9389ZM42.1076 68.9389H46.7288V73.5569H42.1076V68.9389ZM42.0934 73.5769H37.4723V78.195H42.0934V73.5769ZM42.1076 73.5769H46.7288V78.195H42.1076V73.5769ZM67.2909 68.9389H63.3893V73.5574H67.2909V68.9389ZM67.2909 73.5774H63.3892V78.1959H67.2909V73.5774ZM74.4967 68.9389H70.7942V72.6413H74.4967V68.9389ZM78.1996 68.9389H82.8042H82.8086H87.4132V73.5574H82.8086H82.8042H78.1996V68.9389ZM87.4132 73.5774H82.8042V78.1959H87.4132V73.5774ZM91.1579 68.9389H95.7791V73.5569H91.1579V68.9389ZM95.7934 68.9389H100.414V73.5569H95.7934V68.9389ZM95.7791 73.5769H91.158V78.195H95.7791V73.5769ZM95.7934 73.5769H100.414V78.195H95.7934V73.5769Z" fill="url(#paint7_linear_2738_7638)"/>
</g>
<defs>
<filter id="filter0_d_2738_7638" x="19.9166" y="23.6164" width="98.0498" height="98.0498" filterUnits="userSpaceOnUse" color-interpolation-filters="sRGB">
<feFlood flood-opacity="0" result="BackgroundImageFix"/>
<feColorMatrix in="SourceAlpha" type="matrix" values="0 0 0 0 0 0 0 0 0 0 0 0 0 0 0 0 0 0 127 0" result="hardAlpha"/>
<feOffset/>
<feGaussianBlur stdDeviation="6"/>
<feComposite in2="hardAlpha" operator="out"/>
<feColorMatrix type="matrix" values="0 0 0 0 0 0 0 0 0 0 0 0 0 0 0 0 0 0 0.1 0"/>
<feBlend mode="normal" in2="BackgroundImageFix" result="effect1_dropShadow_2738_7638"/>
<feBlend mode="normal" in="SourceGraphic" in2="effect1_dropShadow_2738_7638" result="shape"/>
</filter>
<radialGradient id="paint0_radial_2738_7638" cx="0" cy="0" r="1" gradientUnits="userSpaceOnUse" gradientTransform="translate(50.225 42.2461) rotate(86.5732) scale(20.7042)">
<stop stop-color="#FF08E6"/>
<stop offset="1" stop-color="#FF00E5" stop-opacity="0"/>
</radialGradient>
<radialGradient id="paint1_radial_2738_7638" cx="0" cy="0" r="1" gradientUnits="userSpaceOnUse" gradientTransform="translate(64.8281 56.7255) rotate(110.943) scale(26.8332)">
<stop stop-color="#00F0FF"/>
<stop offset="1" stop-color="#00F0FF" stop-opacity="0"/>
</radialGradient>
<radialGradient id="paint2_radial_2738_7638" cx="0" cy="0" r="1" gradientUnits="userSpaceOnUse" gradientTransform="translate(92.8033 70.0113) rotate(86.5732) scale(20.7042)">
<stop stop-color="#FF08E6"/>
<stop offset="1" stop-color="#FF00E5" stop-opacity="0"/>
</radialGradient>
<radialGradient id="paint3_radial_2738_7638" cx="0" cy="0" r="1" gradientUnits="userSpaceOnUse" gradientTransform="translate(107.406 84.4907) rotate(110.943) scale(26.8332)">
<stop stop-color="#00F0FF"/>
<stop offset="1" stop-color="#00F0FF" stop-opacity="0"/>
</radialGradient>
<radialGradient id="paint4_radial_2738_7638" cx="0" cy="0" r="1" gradientUnits="userSpaceOnUse" gradientTransform="translate(50.225 42.2427) rotate(86.5732) scale(20.7042)">
<stop stop-color="#FF08E6"/>
<stop offset="1" stop-color="#FF00E5" stop-opacity="0"/>
</radialGradient>
<radialGradient id="paint5_radial_2738_7638" cx="0" cy="0" r="1" gradientUnits="userSpaceOnUse" gradientTransform="translate(64.8281 56.7221) rotate(110.943) scale(26.8332)">
<stop stop-color="#00F0FF"/>
<stop offset="1" stop-color="#00F0FF" stop-opacity="0"/>
</radialGradient>
<linearGradient id="paint6_linear_2738_7638" x1="101.541" y1="106.025" x2="53.5378" y2="56.9016" gradientUnits="userSpaceOnUse">
<stop/>
<stop offset="1" stop-color="white" stop-opacity="0"/>
</linearGradient>
<linearGradient id="paint7_linear_2738_7638" x1="98.9391" y1="72.8565" x2="41.5649" y2="68.1654" gradientUnits="userSpaceOnUse">
<stop stop-color="#00F0FF"/>
<stop offset="1" stop-color="#0500E3"/>
</linearGradient>
<clipPath id="clip0_2738_7638">
<rect width="140" height="140" fill="white"/>
</clipPath>
</defs>
</svg>
